<svg width="24" height="24" viewBox="0 0 24 24" fill="none" xmlns="http://www.w3.org/2000/svg">
<path d="M8.97936 19.9039V17.1437C8.97935 16.4443 9.5481 15.876 10.2526 15.8716H12.8393C13.547 15.8716 14.1206 16.4412 14.1206 17.1437V19.8959C14.1206 20.5026 14.6136 20.9956 15.2246 21H16.9894C17.8137 21.0021 18.6049 20.6785 19.1885 20.1006C19.772 19.5228 20.1 18.7381 20.1 17.9198V10.0793C20.1 9.41825 19.8049 8.79124 19.2942 8.36715L13.2987 3.60684C12.2507 2.77421 10.7538 2.80111 9.73685 3.67085L3.87031 8.36715C3.33547 8.77874 3.0158 9.40761 3 10.0793V17.9118C3 19.6173 4.39264 21 6.11056 21H7.83506C8.12926 21.0021 8.41214 20.8876 8.62093 20.6818C8.82971 20.476 8.94713 20.196 8.94713 19.9039H8.97936Z" fill="white"/>
</svg>